<?xml version="1.0" encoding="UTF-8"?><svg id="Layer_1" xmlns="http://www.w3.org/2000/svg" viewBox="0 0 512 512"><defs><style>.cls-1{fill:none;}</style></defs><path d="m315.8,380.59l-16.02-17.8c-18.51,13.88-42.01,22.42-68.7,22.42-45.56,0-83.65-27.05-83.65-72.26,0-27.4,13.88-49.12,46.28-67.27-12.81-14.25-25.63-32.04-25.63-56.6,0-32.75,26.34-62.29,67.64-62.29s66.2,27.77,66.56,60.87c.35,31.68-19.94,49.84-45.92,63l-8.54,4.28,52.32,56.6c11.75-19.93,16.73-45.21,11.39-71.54h34.17c7.48,34.52-.71,70.48-21,97.88l39.87,42.72h-48.76Zm-39.16-43.07l-60.15-66.56-2.13,1.07c-17.8,8.9-30.26,21-30.26,40.93,0,21.71,20.65,39.16,46.98,39.16,17.09,0,32.75-5.34,45.56-14.6Zm-72.61-148.07c0,15.3,7.83,26.69,20.65,40.93l14.95-7.47c21.35-10.33,26.7-19.23,26.7-34.53s-11.04-29.19-30.61-29.19c-18.16,0-31.68,13.17-31.68,30.26Z"/><rect class="cls-1" x="-.2" width="512.4" height="512"/></svg>