<?xml version="1.0" encoding="UTF-8"?><svg id="Layer_1" xmlns="http://www.w3.org/2000/svg" viewBox="0 0 512 512"><defs><style>.cls-1{fill:none;}</style></defs><path d="m110.95,256.89c0-83.29,60.87-147.01,145.93-147.01s144.16,60.87,144.16,133.47c0,56.95-23.13,85.07-59.09,85.07-22.43,0-35.6-11.39-40.93-26.69h-2.13c-6.06,11.74-21.36,26.69-48.41,26.69-37.02,0-66.21-27.4-66.21-69.76s27.76-70.84,64.43-70.48c23.13,0,36.3,11.75,41.65,19.58h2.13v-17.09h29.54v87.92c0,14.24,7.11,23.49,21.71,23.49,19.57,0,29.54-19.22,29.54-58.37,0-60.87-48.06-107.14-116.75-107.14s-115.68,51.97-115.68,119.95,47.7,118.54,120.67,118.54h61.22v27.05h-61.22c-86.5,0-150.57-60.87-150.57-145.23Zm182.6,1.07c0-24.91-15.67-42.35-39.51-42-21.72,0-38.81,16.37-38.81,42.35s16.73,42.72,39.16,42.72,39.15-14.95,39.15-43.07Z"/><rect class="cls-1" x=".8" width="512.4" height="512"/></svg>