<?xml version="1.0" encoding="UTF-8"?><svg id="Layer_1" xmlns="http://www.w3.org/2000/svg" viewBox="0 0 512 512"><defs><style>.cls-1{fill:none;}</style></defs><path d="m249.41,275.05l-2.13-1.07-27.41,32.75-14.6-14.59,33.11-27.06-1.07-2.49-42.71,3.56v-20.65l42.35,3.92,1.07-2.49-32.75-27.05,14.6-14.6,27.05,33.1,2.49-1.42-3.91-42.36h20.65l-3.56,42.36,2.49,1.42,27.05-33.1,14.6,14.6-33.11,27.05,1.07,2.49,42.71-3.92v20.65l-42.71-3.56-1.07,2.49,33.11,27.06-14.6,14.59-27.41-32.75-2.49,1.07,3.92,42.35h-20.65l3.91-42.35Z"/><rect class="cls-1" x="-.2" width="512.4" height="512"/></svg>