<?xml version="1.0" encoding="UTF-8"?><svg id="Layer_1" xmlns="http://www.w3.org/2000/svg" viewBox="0 0 512 512"><defs><style>.cls-1{fill:none;}</style></defs><path d="m170.57,131.42h86.49c48.06,0,75.82,27.77,75.82,64.43,0,23.85-11.39,42.36-30.26,52.68v2.13c16.38,6.41,38.81,24.2,38.81,58.38,0,45.2-35.6,71.55-77.25,71.55h-93.61v-249.16Zm83.29,105c24.56,0,40.93-14.95,40.93-37.02s-16.73-35.24-40.22-35.24h-46.63v72.26h45.91Zm2.14,111.41c25.98,0,45.56-12.81,45.56-41.29s-22.78-40.22-48.06-40.22h-45.56v81.51h48.06Z"/><rect class="cls-1" x="-.2" width="512.4" height="512"/></svg>