<?xml version="1.0" encoding="UTF-8"?><svg id="Layer_1" xmlns="http://www.w3.org/2000/svg" viewBox="0 0 512 512"><defs><style>.cls-1{fill:none;}</style></defs><path d="m118.07,165.23h36.3v24.56h2.49c8.19-15.67,25.64-29.19,52.33-29.19s46.27,12.46,56.95,31.32h2.49c12.47-22.07,32.04-31.32,57.31-31.32,40.93,0,67.98,28.48,67.98,68.7v122.09h-37.37v-109.27c0-30.26-14.59-46.63-39.15-46.63s-42.36,17.44-42.36,47.34v108.56h-37.37v-113.55c0-25.99-16.73-42.36-40.22-42.36s-42.01,18.86-42.01,46.27v109.63h-37.37v-186.16Z"/><rect class="cls-1" x=".8" width="512.4" height="512"/></svg>