<?xml version="1.0" encoding="UTF-8"?><svg id="Layer_1" xmlns="http://www.w3.org/2000/svg" viewBox="0 0 512 512"><defs><style>.cls-1{fill:none;}</style></defs><path d="m230.01,292.67c0-19.93,8.19-33.1,23.86-46.27l20.29-16.73c12.1-9.96,18.51-18.87,18.51-34.17,0-20.29-13.52-35.23-37.73-35.23s-39.14,17.44-39.14,38.79h-34.53c0-36.66,24.91-72.26,74.04-72.26s75.46,29.54,75.46,67.99c0,29.9-17.79,46.98-33.81,59.08l-18.87,15.3c-8.54,6.76-12.81,14.95-12.81,25.28v17.09h-35.25v-18.87Zm-5.7,69.41c0-13.17,10.68-23.49,23.86-23.49s23.49,10.32,23.49,23.49-9.96,23.13-23.49,23.13-23.86-9.96-23.86-23.13Z"/><rect class="cls-1" x=".8" width="512.4" height="512"/></svg>