<?xml version="1.0" encoding="UTF-8"?><svg id="Layer_1" xmlns="http://www.w3.org/2000/svg" viewBox="0 0 512 512"><defs><style>.cls-1{fill:none;}</style></defs><path d="m164.88,304.05h37.38c.36,25.63,21.36,45.92,55.88,45.92,29.54,0,49.48-13.53,49.48-35.95,0-67.27-134.9-17.45-134.9-117.82,0-37.73,30.61-69.41,83.29-69.41,42.36,0,84.72,22.78,85.43,74.74h-38.8c0-24.56-16.73-40.22-46.98-40.22s-44.85,16.37-44.85,34.17c0,60.15,136.33,14.95,136.33,115.68,0,41.65-33.1,74.04-90.41,74.04-53.39,0-91.84-33.1-91.84-81.16Z"/><rect class="cls-1" x="-.2" width="512.4" height="512"/></svg>