<?xml version="1.0" encoding="UTF-8"?><svg id="Layer_1" xmlns="http://www.w3.org/2000/svg" viewBox="0 0 512 512"><defs><style>.cls-1{fill:none;}</style></defs><path d="m180.89,293.91h35.24c2.49,19.22,16.38,29.19,40.58,29.19s38.09-11.03,38.09-27.41c0-45.56-108.92-7.11-108.92-82.93,0-31.32,27.76-54.46,70.48-54.46,37.38,0,66.56,20.29,69.41,55.88h-34.17c-2.13-15.66-14.24-25.99-36.66-25.99-21,0-34.17,9.97-34.17,23.85,0,41.29,110.35,2.85,110.35,81.87,0,35.24-28.83,59.8-75.47,59.8s-72.26-23.85-74.75-59.8Z"/><rect class="cls-1" x=".8" width="512.4" height="512"/></svg>