<?xml version="1.0" encoding="UTF-8"?><svg id="Layer_1" xmlns="http://www.w3.org/2000/svg" viewBox="0 0 512 512"><defs><style>.cls-1{fill:none;}</style></defs><path d="m174.49,333.06h34.52c4.28,18.86,22.43,30.25,48.76,30.25,38.45,0,56.25-21,56.25-55.88v-26.7h-2.49c-4.98,7.48-23.49,31.32-60.15,31.32-52.33,0-90.06-39.15-90.06-97.17s37.37-97.53,88.28-97.53c35.95,0,55.52,22.07,61.22,31.68h2.49v-27.05h37.37v185.45c0,52.68-33.46,87.2-92.9,87.2-49.83,0-79.02-27.76-83.29-61.58Zm139.88-118.18c0-40.22-24.91-63.36-57.66-63.36s-57.31,25.99-57.31,63.36,23.49,63.36,57.67,63.36,57.3-28.12,57.3-63.36Z"/><rect class="cls-1" x=".8" width="512.4" height="512"/></svg>